<?xml version="1.0" standalone="no"?>
<!DOCTYPE svg PUBLIC "-//W3C//DTD SVG 20010904//EN"
 "http://www.w3.org/TR/2001/REC-SVG-20010904/DTD/svg10.dtd">
<svg version="1.0" xmlns="http://www.w3.org/2000/svg"
 width="225.000000pt" height="225.000000pt" viewBox="0 0 225.000000 225.000000"
 preserveAspectRatio="xMidYMid meet">

<g transform="translate(0.000000,225.000000) scale(0.100000,-0.100000)"
fill="#0168B5" stroke="none">
<path d="M0 1570 l0 -680 1125 0 1125 0 0 680 0 680 -1125 0 -1125 0 0 -680z
m1088 220 c17 -11 32 -25 32 -31 0 -6 16 3 35 20 49 43 104 43 146 2 25 -26
29 -37 29 -85 0 -44 3 -56 16 -56 8 0 20 -14 26 -31 6 -16 12 -29 14 -27 1 2
10 48 19 103 9 55 20 104 24 108 14 14 27 -20 42 -103 l12 -75 15 38 c8 20 18
37 22 37 3 0 17 -11 30 -25 13 -14 34 -25 47 -25 14 0 23 -6 23 -15 0 -18 -60
-21 -78 -3 -15 15 -16 13 -34 -41 -14 -45 -34 -64 -42 -39 -3 7 -10 40 -17 73
l-13 60 -12 -83 c-16 -108 -20 -120 -38 -101 -8 8 -21 38 -31 67 -9 28 -22 52
-28 52 -7 0 -25 -20 -40 -44 -29 -47 -141 -156 -159 -156 -17 0 -144 128 -164
165 -17 31 -23 35 -61 35 -29 0 -45 5 -51 16 -7 13 -14 2 -31 -49 -36 -107
-48 -103 -77 27 l-18 81 -9 -37 c-8 -36 -11 -38 -48 -38 -46 0 -56 27 -12 32
22 3 28 11 40 53 22 81 22 80 36 66 7 -6 21 -51 32 -99 l21 -87 20 59 c11 33
25 61 32 64 6 2 18 -11 27 -27 11 -22 23 -31 41 -31 23 0 24 3 19 33 -7 37 7
82 37 115 27 28 81 29 126 2z"/>
<path d="M436 650 c-39 -12 -83 -56 -97 -97 -46 -141 142 -252 244 -145 77 80
42 212 -64 242 -39 11 -44 11 -83 0z m105 -79 c20 -20 29 -39 29 -61 0 -43
-47 -90 -90 -90 -43 0 -90 47 -90 90 0 22 9 41 29 61 20 20 39 29 61 29 22 0
41 -9 61 -29z"/>
<path d="M1415 653 c-113 -29 -143 -193 -47 -261 71 -51 167 -29 210 47 27 48
28 83 1 137 -29 61 -98 93 -164 77z m94 -79 c25 -20 31 -34 31 -64 0 -30 -6
-44 -31 -64 -38 -33 -79 -33 -116 -2 -22 19 -28 32 -28 66 0 80 82 116 144 64z"/>
<path d="M670 510 l0 -140 25 0 25 0 0 115 0 115 40 0 40 0 0 -115 0 -115 25
0 25 0 0 115 0 115 24 0 c46 0 56 -22 56 -131 l0 -99 28 0 27 0 -3 115 c-3
113 -3 114 -33 140 -29 24 -36 25 -155 25 l-124 0 0 -140z"/>
<path d="M1040 510 l0 -140 30 0 30 0 0 115 0 115 48 0 c52 0 72 -12 72 -45 0
-30 -19 -45 -58 -45 -39 0 -39 2 13 -78 37 -58 43 -62 77 -62 l38 0 -34 48
-34 47 29 33 c32 35 35 57 17 97 -18 41 -57 55 -148 55 l-80 0 0 -140z"/>
<path d="M1635 510 l0 -140 28 0 27 0 0 115 0 115 48 0 c26 0 53 -5 60 -12 8
-8 12 -48 12 -115 l0 -103 30 0 30 0 0 100 c0 155 -22 180 -157 180 l-78 0 0
-140z"/>
</g>
</svg>
